<svg width="2929" height="2137" viewBox="0 0 2929 2137" fill="none" xmlns="http://www.w3.org/2000/svg">
<path d="M486.018 558.874L383.264 374.227H927.09C943.642 374.227 960.462 375.688 976.587 379.425C1447.02 488.434 1446.63 1056.22 1073.55 1196.74L1329.42 1649.46H1119.33L760.708 1034.99H933.623C960.95 1034.99 988.631 1031.42 1013.51 1020.12C1263.07 906.721 1168.95 576.826 974.865 558.874H486.018Z" stroke="#F1C431" stroke-width="23.9448"/>
<path d="M2202.39 548.34C2458.37 548.34 2665.89 756.002 2665.89 1012.19C2665.89 1268.37 2458.37 1476.03 2202.39 1476.03C1946.41 1476.03 1738.88 1268.37 1738.88 1012.19C1738.88 756.002 1946.41 548.34 2202.39 548.34Z" stroke="#F1C431" stroke-width="23.9448"/>
<circle cx="2202.73" cy="1025.87" r="640.354" stroke="#F1C431" stroke-width="23.9448"/>
<path d="M1707.63 1825.22C1735.82 1825.22 1755.26 1839.96 1755.26 1862.81C1755.26 1877.98 1743.73 1894.85 1727.92 1911.94L1689.04 1953.17H1762.1V1975.81H1655.72V1957.44L1710.83 1898.27C1721.72 1887.16 1728.99 1874.99 1728.99 1866.44C1728.99 1854.48 1719.59 1847.22 1703.99 1847.22C1690.96 1847.22 1675.8 1854.48 1663.2 1866.02L1653.16 1846.58C1669.39 1833.34 1688.4 1825.22 1707.63 1825.22Z" fill="#F1C431"/>
<path d="M1599.39 1826.29V1975.81H1574.19V1848.72H1544.92V1826.29H1599.39Z" fill="#F1C431"/>
<path d="M1447 1825.64C1487.8 1825.64 1510.44 1852.55 1510.44 1901.04C1510.44 1949.53 1487.8 1976.45 1447 1976.45C1405.99 1976.45 1383.35 1949.53 1383.35 1901.04C1383.35 1852.55 1405.99 1825.64 1447 1825.64ZM1447 1845.51C1421.8 1845.51 1409.19 1863.02 1409.19 1901.04C1409.19 1938.85 1421.8 1956.58 1447 1956.58C1471.99 1956.58 1484.6 1938.85 1484.6 1901.04C1484.6 1863.02 1471.99 1845.51 1447 1845.51Z" fill="#F1C431"/>
<path d="M1287.68 1825.22C1315.87 1825.22 1335.31 1839.96 1335.31 1862.81C1335.31 1877.98 1323.78 1894.85 1307.97 1911.94L1269.09 1953.17H1342.15V1975.81H1235.77V1957.44L1290.88 1898.27C1301.77 1887.16 1309.04 1874.99 1309.04 1866.44C1309.04 1854.48 1299.64 1847.22 1284.05 1847.22C1271.02 1847.22 1255.85 1854.48 1243.25 1866.02L1233.21 1846.58C1249.44 1833.34 1268.45 1825.22 1287.68 1825.22Z" fill="#F1C431"/>
<path d="M1035.46 1908.77H1003.42V1949.14H1035.46H1119.84V1975.84H1003.42V1820.12H1115.99V1846.83H1035.46H1003.42V1882.07H1035.46H1110.01V1908.77H1035.46Z" fill="#F1C431"/>
<path d="M851.588 1899.77C851.588 1882.54 855.148 1869.08 862.268 1859.4C868.912 1850.36 877.975 1845.54 889.456 1844.93V1817.54C868.202 1817.85 851.307 1825.18 838.771 1839.53C825.955 1854.2 819.547 1874.13 819.547 1899.34C819.547 1924.4 825.884 1944.27 838.558 1958.94C850.616 1972.75 866.734 1980 886.912 1980.67V1953.64C876.41 1952.71 868.053 1947.99 861.841 1939.5C855.005 1929.96 851.588 1916.71 851.588 1899.77Z" fill="#F1C431"/>
<path d="M955.827 1872.85C954.403 1855.62 947.781 1842.09 935.962 1832.27C924.958 1823.01 910.982 1818.11 894.035 1817.58V1844.91C911.033 1845.6 921.448 1854.92 925.282 1872.85H955.827Z" fill="#F1C431"/>
<path d="M955.317 1925.94C953.893 1943.17 947.272 1956.7 935.452 1966.53C924.448 1975.79 910.473 1980.68 893.525 1981.22V1953.88C910.523 1953.19 920.938 1943.88 924.772 1925.94H955.317Z" fill="#F1C431"/>
<path d="M677.943 1868.15L740.53 1975.81H772.57V1820.09H740.53V1926.04L678.798 1820.09H645.902V1911.71H677.943V1868.15Z" fill="#F1C431"/>
<path d="M645.902 1975.81H677.943V1924.84H645.902V1975.81Z" fill="#F1C431"/>
<path d="M590.292 1875.07V1975.81H558.748V1875.07H590.292Z" fill="#F1C431"/>
<path d="M590.292 1817.07V1865.91H558.748V1817.07H590.292Z" fill="#F1C431"/>
<path d="M476.036 1867.51H505.94C505.94 1859.39 504.516 1852.27 501.668 1846.15C498.963 1839.88 495.545 1835.04 491.415 1831.62C487.285 1828.06 482.373 1825.21 476.676 1823.08C473.338 1821.72 464.116 1818.7 453.941 1817.52V1849.63C461.306 1850.19 476.036 1855.37 476.036 1867.51Z" fill="#F1C431"/>
<path d="M422.634 1875.2C418.505 1872.35 416.44 1868.08 416.44 1862.38C416.44 1846.58 434.75 1846.36 444.849 1848.5V1817.52C426.194 1817.52 411.669 1821.72 401.274 1830.13C391.021 1838.39 385.894 1850.13 385.894 1865.37C385.894 1877.48 389.241 1886.73 395.934 1893.14C402.626 1899.55 413.876 1904.25 429.683 1907.24L451.471 1911.51C462.151 1913.5 469.699 1916.21 474.113 1919.63C478.528 1923.04 480.735 1927.89 480.735 1934.15C480.735 1940.7 477.887 1945.83 472.191 1949.53C466.847 1952.12 457.797 1953.2 453.941 1953.42V1975.81C462.574 1976.02 482.797 1974.65 494.619 1967.47C505.869 1958.5 511.494 1946.11 511.494 1930.31C511.494 1918.06 508.219 1908.59 501.668 1901.9C495.118 1895.06 484.651 1890.22 470.268 1887.37L445.917 1882.67C434.525 1880.39 426.764 1877.9 422.634 1875.2Z" fill="#F1C431"/>
<path d="M414.304 1929.24H383.117C384.848 1958.17 414.104 1978.41 442.982 1976.01C443.992 1975.93 444.968 1975.85 445.917 1975.81V1953.42C437.77 1953.92 420.04 1948.97 414.304 1929.24Z" fill="#F1C431"/>
</svg>
